<svg xmlns="http://www.w3.org/2000/svg" width="536" height="186" viewBox="0 0 536 186" font-family="ui-monospace, SFMono-Regular, Menlo, Consolas, monospace" font-size="13">
<rect x="0" y="0" width="536" height="186" rx="8" fill="#1e1e1e"/>
<rect x="0" y="0" width="536" height="28" rx="8" fill="#2a2a2a"/>
<rect x="0" y="20" width="536" height="10" fill="#2a2a2a"/>
<circle cx="16" cy="14" r="6" fill="#ff5f57"/>
<circle cx="34" cy="14" r="6" fill="#febc2e"/>
<circle cx="52" cy="14" r="6" fill="#28c840"/>
<text x="268.0" y="19" fill="#888" text-anchor="middle" font-size="11">cctree</text>
<text x="16.0" y="44.0" fill="#ffffff" font-weight="700"># /Users/sam/Code/my-app</text>
<text x="16.0" y="62.0" fill="#d0d0d0">├─ </text>
<text x="41.2" y="62.0" fill="#a6e22e">feature/auth-rewrite</text>
<text x="209.2" y="62.0" fill="#888888"> (a91f3c08)</text>
<text x="301.6" y="62.0" fill="#d0d0d0">               </text>
<text x="427.6" y="62.0" fill="#888888">04-23 11:15</text>
<text x="16.0" y="80.0" fill="#d0d0d0">│  ├─ </text>
<text x="66.4" y="80.0" fill="#a6e22e">postgres native roles</text>
<text x="242.8" y="80.0" fill="#888888"> (5e2c4d71)</text>
<text x="335.2" y="80.0" fill="#d0d0d0">           </text>
<text x="427.6" y="80.0" fill="#888888">04-23 11:40</text>
<rect x="16.0" y="84.0" width="92.4" height="18" fill="#d0d0d0"/>
<text x="16.0" y="98.0" fill="#1e1e1e" font-weight="700">│  │  └─ ● </text>
<rect x="108.4" y="84.0" width="109.2" height="18" fill="#d0d0d0"/>
<text x="108.4" y="98.0" fill="#1e1e1e" font-weight="700">add rls tests</text>
<text x="217.6" y="98.0" fill="#888888"> (bc8a6e19)</text>
<text x="310.0" y="98.0" fill="#d0d0d0">              </text>
<text x="427.6" y="98.0" fill="#888888">04-23 12:10</text>
<text x="16.0" y="116.0" fill="#d0d0d0">│  └─ </text>
<text x="66.4" y="116.0" fill="#a6e22e">reconcile with middleware</text>
<text x="276.4" y="116.0" fill="#888888"> (7d43f2b0)</text>
<text x="368.8" y="116.0" fill="#d0d0d0">       </text>
<text x="427.6" y="116.0" fill="#888888">04-23 12:50</text>
<text x="16.0" y="134.0" fill="#d0d0d0">└─ </text>
<text x="41.2" y="134.0" fill="#a6e22e">bugfix/retry-jitter</text>
<text x="200.8" y="134.0" fill="#888888"> (3f6b1ea2)</text>
<text x="293.2" y="134.0" fill="#d0d0d0">                </text>
<text x="427.6" y="134.0" fill="#888888">04-23 13:05</text>
<text x="16.0" y="152.0" fill="#d0d0d0">   └─ </text>
<text x="66.4" y="152.0" fill="#a6e22e">cap backoff at 30s</text>
<text x="217.6" y="152.0" fill="#888888"> (d018497c)</text>
<text x="310.0" y="152.0" fill="#d0d0d0">              </text>
<text x="427.6" y="152.0" fill="#888888">04-23 13:30</text>
</svg>